<svg xmlns="http://www.w3.org/2000/svg" width="261" height="143" viewBox="0 0 261 143"><g transform="translate(-310 -1643)"><rect width="227" height="124" rx="10" transform="translate(330 1643)" fill="#707070"/><rect width="196" height="98" transform="translate(346 1653)" fill="#312563"/><path d="M0,0H261a0,0,0,0,1,0,0V10a9,9,0,0,1-9,9H8a8,8,0,0,1-8-8V0A0,0,0,0,1,0,0Z" transform="translate(310 1767)" fill="#d6d6d6"/><rect width="131" height="98" transform="translate(379 1653)" fill="#fff"/><rect width="196" height="10" transform="translate(346 1653)" fill="#025ee5"/><circle cx="7" cy="7" r="7" transform="translate(437 1673)" fill="#f8b5ff"/><circle cx="7" cy="7" r="7" transform="translate(423 1691)" fill="#b5ceff"/><circle cx="7" cy="7" r="7" transform="translate(477 1691)" fill="#fff3b5"/><circle cx="7" cy="7" r="7" transform="translate(396 1691)" fill="#d0b5ff"/><circle cx="7" cy="7" r="7" transform="translate(450 1691)" fill="#b5ffcb"/><rect width="95" height="11" rx="5.5" transform="translate(396 1717)" fill="#1eef1d"/><rect width="95" height="11" rx="5.5" transform="translate(396 1719)" fill="#05cb04"/></g></svg>