<svg xmlns="http://www.w3.org/2000/svg" width="73" height="15" viewBox="0 0 73 15"><g transform="translate(-413 -396)"><g transform="translate(413 396)" fill="rgba(35,232,34,0)" stroke="#707070" stroke-width="1"><path d="M8,0H19a0,0,0,0,1,0,0V15a0,0,0,0,1,0,0H7A7,7,0,0,1,0,8V8A8,8,0,0,1,8,0Z" stroke="none"/><path d="M8,.5H18a.5.5,0,0,1,.5.5V14a.5.5,0,0,1-.5.5H7A6.5,6.5,0,0,1,.5,8V8A7.5,7.5,0,0,1,8,.5Z" fill="none"/></g><g transform="translate(431 396)" fill="rgba(35,232,34,0)" stroke="#707070" stroke-width="1"><rect width="19" height="15" stroke="none"/><rect x="0.5" y="0.5" width="18" height="14" fill="none"/></g><g transform="translate(449 396)" fill="rgba(35,232,34,0)" stroke="#707070" stroke-width="1"><rect width="19" height="15" stroke="none"/><rect x="0.5" y="0.5" width="18" height="14" fill="none"/></g><g transform="translate(467 396)" fill="rgba(35,232,34,0)" stroke="#707070" stroke-width="1"><path d="M0,0H11a8,8,0,0,1,8,8V8a7,7,0,0,1-7,7H0a0,0,0,0,1,0,0V0A0,0,0,0,1,0,0Z" stroke="none"/><path d="M1,.5H11A7.5,7.5,0,0,1,18.5,8V8A6.5,6.5,0,0,1,12,14.5H1A.5.5,0,0,1,.5,14V1A.5.5,0,0,1,1,.5Z" fill="none"/></g></g></svg>