<svg xmlns="http://www.w3.org/2000/svg" xmlns:xlink="http://www.w3.org/1999/xlink" width="21.672" height="21.672" viewBox="0 0 21.672 21.672">
  <defs>
    <clipPath id="clip-path">
      <path id="Trazado_640" data-name="Trazado 640" d="M833.336-28.5a10.848,10.848,0,0,1,10.836,10.836A10.848,10.848,0,0,1,833.336-6.828,10.848,10.848,0,0,1,822.5-17.664,10.848,10.848,0,0,1,833.336-28.5Zm0,19.5A8.679,8.679,0,0,0,842-17.664a8.679,8.679,0,0,0-8.669-8.669,8.679,8.679,0,0,0-8.669,8.669A8.679,8.679,0,0,0,833.336-9Zm-2.168-6.949,5.737-5.736,1.532,1.532-7.267,7.267L827.146-16.9l1.53-1.534Z" transform="translate(-822.5 28.5)" fill="none"/>
    </clipPath>
    <clipPath id="clip-path-2">
      <path id="Trazado_639" data-name="Trazado 639" d="M819-.215h31.785V-32H819Z" transform="translate(-819 32)" fill="none"/>
    </clipPath>
    <clipPath id="clip-path-3">
      <rect id="Rectángulo_2330" data-name="Rectángulo 2330" width="32" height="32" transform="translate(0.295 0.2)" fill="none"/>
    </clipPath>
    <clipPath id="clip-path-4">
      <path id="Trazado_638" data-name="Trazado 638" d="M822-5.884h23.116V-29H822Z" transform="translate(-822 29)" fill="none"/>
    </clipPath>
  </defs>
  <g id="Grupo_1114" data-name="Grupo 1114" clip-path="url(#clip-path)">
    <g id="Grupo_1113" data-name="Grupo 1113" transform="translate(-5.057 -5.057)" clip-path="url(#clip-path-2)">
      <g id="Grupo_1112" data-name="Grupo 1112" transform="translate(-0.371 -0.514)" style="isolation: isolate">
        <g id="Grupo_1111" data-name="Grupo 1111" transform="translate(0 0)" clip-path="url(#clip-path-3)">
          <g id="Grupo_1110" data-name="Grupo 1110" transform="translate(4.705 4.849)" clip-path="url(#clip-path-4)">
            <path id="Trazado_637" data-name="Trazado 637" d="M814-37h46.233V9.233H814Z" transform="translate(-825.558 25.442)" fill="#475e7a"/>
          </g>
        </g>
      </g>
    </g>
  </g>
</svg>
