<svg id="Graphic" xmlns="http://www.w3.org/2000/svg" width="156.674" height="156.633" viewBox="0 0 156.674 156.633">
  <defs>
    <style>
      .cls-1 {
        fill: #f2f4f4;
      }

      .cls-2 {
        fill: #fdac41;
      }

      .cls-3, .cls-5, .cls-6, .cls-7 {
        fill: #475f7b;
      }

      .cls-4 {
        fill: #fff;
      }

      .cls-5 {
        font-size: 10px;
      }

      .cls-5, .cls-7 {
        font-family: Rubik-Regular, Rubik;
      }

      .cls-6 {
        font-size: 15px;
        font-family: SegoeUI, Segoe UI;
      }

      .cls-7 {
        font-size: 22px;
      }

      .cls-8 {
        fill: #304156;
        font-size: 5px;
        font-family: IBMPlexSans-Bold, IBM Plex Sans;
        font-weight: 700;
      }
    </style>
  </defs>
  <g id="Shape" transform="translate(0 0)">
    <path id="Shape-2" data-name="Shape" class="cls-1" d="M50.65,103.506a4.7,4.7,0,0,1,0-9.41A42.344,42.344,0,1,0,9.3,42.589,4.7,4.7,0,1,1,.111,40.562,51.759,51.759,0,1,1,50.65,103.506Z" transform="matrix(0.616, -0.788, 0.788, 0.616, 6.456, 86.235)"/>
    <path id="Shape-3" data-name="Shape" class="cls-2" d="M51.753,93.6a4.7,4.7,0,1,0,0-9.41A42.345,42.345,0,0,1,25.765,8.417,4.7,4.7,0,1,0,19.985.993,51.755,51.755,0,0,0,51.753,93.6Z" transform="translate(77.241 11.63) rotate(50)"/>
    <path id="Scores_lines" data-name="Scores lines" class="cls-3" d="M55.181,111.252h0v-1.568h.309l.009,1.568h-.317ZM67.8,109.815h0l-.354-1.527.3-.071.363,1.526-.069.016-.24.056Zm11.965-4.273h0l-.693-1.406.277-.138.7,1.4-.285.142Zm10.673-6.877h0l-.994-1.213.239-.2,1,1.207-.073.061-.172.141Zm8.853-9.118h0l-1.242-.958.188-.246,1.247.951-.185.241-.009.011Zm6.558-10.873h0l-1.426-.651.127-.281,1.43.643-.026.057-.105.232Zm3.913-12.086h0l-1.537-.308c.022-.108.043-.214.06-.3l1.539.3,0,.026-.057.286Zm-.5-12.611h0c0-.092-.006-.192-.01-.306l1.568-.054q.005.154.01.308v.007l-1.567.045ZM1.555,48.34h0L0,48.133v-.009q.021-.153.042-.306l1.553.217c-.012.085-.025.182-.042.306ZM107.5,41.75h0q-.039-.149-.08-.3l1.514-.408.014.05.069.258-1.516.4ZM4.577,36.386h0l-1.466-.556.114-.3,1.463.565-.11.286v0Zm98.43-6.131h0l-.146-.274,1.381-.743.15.282-1.385.735ZM10.248,25.426h0l-1.3-.875.04-.06.139-.2,1.3.882-.173.257Zm85.773-5.339h0l-.2-.232L97,18.82l.058.066.151.173-1.183,1.029ZM18.266,16.02h0L17.2,14.874l.233-.216,1.064,1.152-.169.156-.057.053ZM86.9,11.743h0l-.251-.181.913-1.275.061.044.2.142-.92,1.269ZM28.184,8.678h0L27.4,7.32l.067-.039.208-.119.776,1.363-.267.153Zm47.955-3h0l-.282-.117.6-1.449.25.1.038.016.006,0-.608,1.445Zm-36.631-1.9h0l-.453-1.5.305-.091.445,1.5-.3.089Zm24.8-1.538h0L64,2.188,64.257.641l.014,0,.3.05-.263,1.546Zm-12.64-.654h0l-.1-1.565L51.885,0l.091,1.566-.3.018h-.008Z" transform="translate(0 83.645) rotate(-49)"/>
    <g id="Button" transform="translate(85.111 26.623)">
      <circle id="Oval" class="cls-4" cx="7.5" cy="7.5" r="7.5" transform="translate(0.346 0.21)"/>
    </g>
    <text id="Text" class="cls-5" transform="translate(49.456 84.833)"><tspan x="13.14" y="9">62 min</tspan></text>
    <text id="Time_Spent" data-name="Time Spent" class="cls-5" transform="translate(46.766 67.398)"><tspan x="14.729" y="9">Tiempo</tspan></text>
    <text id="Min" class="cls-6" transform="translate(43.456 113.833)"><tspan x="1.765" y="16">M</tspan></text>
    <text id="Max" class="cls-7" transform="translate(97.456 113.833)"><tspan x="-0.234" y="21">M</tspan></text>
  </g>
  <g id="Text-2" data-name="Text" transform="translate(13.832 15.018)">
    <text id="Text-3" data-name="Text" class="cls-8" transform="translate(15.624 100.815)"><tspan x="1.5" y="5">0</tspan></text>
    <text id="Text-4" data-name="Text" class="cls-8" transform="translate(0 34.816)"><tspan x="4.606" y="5">25</tspan></text>
    <text id="Text-5" data-name="Text" class="cls-8" transform="translate(55.624 -0.185)"><tspan x="6" y="5">50</tspan></text>
    <text id="Text-6" data-name="Text" class="cls-8" transform="translate(114.641 35.443)"><tspan x="3.822" y="5">75</tspan></text>
    <text id="Text-7" data-name="Text" class="cls-8" transform="translate(112.624 104.815)"><tspan x="-4.5" y="0">100</tspan></text>
  </g>
</svg>
