<svg xmlns="http://www.w3.org/2000/svg" xmlns:xlink="http://www.w3.org/1999/xlink" width="10.824" height="10.051" viewBox="0 0 10.824 10.051"><defs><clipPath id="a"><path d="M2.164,10.051a.564.564,0,0,1-.307-.09.483.483,0,0,1-.22-.526l.807-3.243L.163,4.129A.479.479,0,0,1,.032,3.6.536.536,0,0,1,.5,3.268l3.085-.227L4.919.3A.558.558,0,0,1,5.9.3L7.24,3.041l3.085.228a.537.537,0,0,1,.47.34.479.479,0,0,1-.15.535L8.19,6.195l.99,3.216a.486.486,0,0,1-.2.544.578.578,0,0,1-.62.012L5.412,8.142,2.465,9.967A.572.572,0,0,1,2.164,10.051ZM5.412,1.724l-.974,2a.539.539,0,0,1-.45.294l-2.214.164L3.419,5.671a.482.482,0,0,1,.149.472L3,8.428,5.112,7.12a.572.572,0,0,1,.6,0L7.735,8.372l-.678-2.2a.477.477,0,0,1,.158-.511l1.77-1.479-2.15-.159a.54.54,0,0,1-.451-.294Z" transform="translate(0 0)" fill="#536987"/></clipPath></defs><path d="M2.164,10.051a.564.564,0,0,1-.307-.09.483.483,0,0,1-.22-.526l.807-3.243L.163,4.129A.479.479,0,0,1,.032,3.6.536.536,0,0,1,.5,3.268l3.085-.227L4.919.3A.558.558,0,0,1,5.9.3L7.24,3.041l3.085.228a.537.537,0,0,1,.47.34.479.479,0,0,1-.15.535L8.19,6.195l.99,3.216a.486.486,0,0,1-.2.544.578.578,0,0,1-.62.012L5.412,8.142,2.465,9.967A.572.572,0,0,1,2.164,10.051ZM5.412,1.724l-.974,2a.539.539,0,0,1-.45.294l-2.214.164L3.419,5.671a.482.482,0,0,1,.149.472L3,8.428,5.112,7.12a.572.572,0,0,1,.6,0L7.735,8.372l-.678-2.2a.477.477,0,0,1,.158-.511l1.77-1.479-2.15-.159a.54.54,0,0,1-.451-.294Z" transform="translate(0 0)" fill="#536987"/></svg>