<svg xmlns="http://www.w3.org/2000/svg" xmlns:xlink="http://www.w3.org/1999/xlink" width="15.875" height="15.098" viewBox="0 0 15.875 15.098"><defs><clipPath id="a"><path d="M1.083,8.235a1.031,1.031,0,1,1,0-2.059,1.031,1.031,0,1,1,0,2.059Zm0-3.088A1.058,1.058,0,0,1,0,4.118a1.058,1.058,0,0,1,1.083-1.03,1.058,1.058,0,0,1,1.082,1.03A1.058,1.058,0,0,1,1.083,5.147Zm0-3.088A1.058,1.058,0,0,1,0,1.03,1.058,1.058,0,0,1,1.083,0,1.058,1.058,0,0,1,2.165,1.03,1.058,1.058,0,0,1,1.083,2.059Z" transform="translate(0 0)" fill="#536987"/></clipPath></defs><g transform="translate(6.855 3.431)"><path d="M1.083,8.235a1.031,1.031,0,1,1,0-2.059,1.031,1.031,0,1,1,0,2.059Zm0-3.088A1.058,1.058,0,0,1,0,4.118a1.058,1.058,0,0,1,1.083-1.03,1.058,1.058,0,0,1,1.082,1.03A1.058,1.058,0,0,1,1.083,5.147Zm0-3.088A1.058,1.058,0,0,1,0,1.03,1.058,1.058,0,0,1,1.083,0,1.058,1.058,0,0,1,2.165,1.03,1.058,1.058,0,0,1,1.083,2.059Z" transform="translate(0 0)" fill="#536987"/></g></svg>