<svg xmlns="http://www.w3.org/2000/svg" width="233.501" height="96" viewBox="0 0 233.501 96">
  <g id="Unión_33" data-name="Unión 33" transform="translate(1924 -3500)" fill="#fff">
    <path d="M -1766 3595.5 L -1877.000244140625 3595.5 C -1883.27783203125 3595.5 -1889.367431640625 3594.2705078125 -1895.099853515625 3591.845947265625 C -1900.636962890625 3589.50390625 -1905.60986328125 3586.15087890625 -1909.880615234375 3581.88037109375 C -1914.151245117188 3577.609619140625 -1917.504150390625 3572.63671875 -1919.84619140625 3567.099609375 C -1922.270874023438 3561.3671875 -1923.500244140625 3555.277587890625 -1923.500244140625 3549 L -1923.500244140625 3547 C -1923.500244140625 3540.722412109375 -1922.270874023438 3534.6328125 -1919.84619140625 3528.900390625 C -1917.504150390625 3523.36328125 -1914.151245117188 3518.390380859375 -1909.880615234375 3514.11962890625 C -1905.60986328125 3509.84912109375 -1900.636962890625 3506.49609375 -1895.099853515625 3504.154052734375 C -1889.367431640625 3501.7294921875 -1883.27783203125 3500.5 -1877.000244140625 3500.5 L -1766 3500.5 C -1756.975219726563 3500.5 -1748.223510742188 3503.087890625 -1740.691284179688 3507.984130859375 C -1733.351806640625 3512.7548828125 -1727.522094726563 3519.459716796875 -1723.832397460938 3527.373779296875 L -1723.765380859375 3527.517578125 L -1723.627807617188 3527.596435546875 L -1691.505493164063 3546.000244140625 L -1721.581665039063 3563.2314453125 L -1721.748291015625 3563.326904296875 L -1721.808227539063 3563.509521484375 C -1723.315185546875 3568.1025390625 -1725.528076171875 3572.4208984375 -1728.385375976563 3576.3447265625 C -1731.208129882813 3580.220947265625 -1734.59765625 3583.628173828125 -1738.45947265625 3586.47119140625 C -1742.366821289063 3589.347900390625 -1746.671875 3591.582763671875 -1751.255126953125 3593.114013671875 C -1755.994384765625 3594.697265625 -1760.955322265625 3595.5 -1766 3595.5 Z" stroke="none"/>
    <path d="M -1766 3595 C -1761.00927734375 3595 -1756.101684570313 3594.205810546875 -1751.41357421875 3592.6396484375 C -1746.8798828125 3591.125 -1742.621215820313 3588.914306640625 -1738.755859375 3586.068603515625 C -1734.935302734375 3583.255859375 -1731.582153320313 3579.88525390625 -1728.78955078125 3576.05029296875 C -1725.963012695313 3572.1689453125 -1723.774047851563 3567.89697265625 -1722.283325195313 3563.353515625 L -1722.16357421875 3562.988525390625 L -1721.830200195313 3562.797607421875 L -1692.51123046875 3546.000244140625 L -1723.876342773438 3528.0302734375 L -1724.151611328125 3527.87255859375 L -1724.28564453125 3527.585205078125 C -1727.935668945313 3519.756103515625 -1733.702880859375 3513.123046875 -1740.963745117188 3508.4033203125 C -1748.414794921875 3503.56005859375 -1757.072143554688 3501 -1766 3501 L -1877.000244140625 3501 C -1883.210571289063 3501 -1889.234619140625 3502.216064453125 -1894.905029296875 3504.614501953125 C -1900.382568359375 3506.931396484375 -1905.302124023438 3510.248291015625 -1909.526977539063 3514.47314453125 C -1913.751953125 3518.697998046875 -1917.06884765625 3523.61767578125 -1919.385620117188 3529.09521484375 C -1921.784057617188 3534.765625 -1923.000244140625 3540.789794921875 -1923.000244140625 3547 L -1923.000244140625 3549 C -1923.000244140625 3555.210205078125 -1921.784057617188 3561.234375 -1919.385620117188 3566.90478515625 C -1917.06884765625 3572.38232421875 -1913.751953125 3577.302001953125 -1909.526977539063 3581.52685546875 C -1905.302124023438 3585.751708984375 -1900.382568359375 3589.068603515625 -1894.905029296875 3591.385498046875 C -1889.234619140625 3593.783935546875 -1883.210571289063 3595 -1877.000244140625 3595 L -1766 3595 M -1766 3596 L -1877.000244140625 3596 C -1902.957275390625 3596 -1924.000244140625 3574.95703125 -1924.000244140625 3549 L -1924.000244140625 3547 C -1924.000244140625 3521.04296875 -1902.957275390625 3500 -1877.000244140625 3500 L -1766 3500 C -1747.131103515625 3500 -1730.859130859375 3511.118896484375 -1723.379272460938 3527.16259765625 L -1690.499633789063 3546.000244140625 L -1721.333129882813 3563.665283203125 C -1727.493774414063 3582.44189453125 -1745.163330078125 3596 -1766 3596 Z" stroke="none" fill="#707070"/>
  </g>
</svg>
