<svg xmlns="http://www.w3.org/2000/svg" width="37.853" height="37.79" viewBox="0 0 37.853 37.79">
  <g id="Shape" transform="translate(0.896 1)">
    <path id="Shape-2" data-name="Shape" d="M0,0A17.9,17.9,0,0,1,15.485,8.886a17.676,17.676,0,0,1,0,17.771c-1.533,3.31-7.616,9.678-15.158,9.062l.595-5.091c7.963-1.007,11.586-6.8,11.584-13.358A12.431,12.431,0,0,0,5.816,6.757,12.58,12.58,0,0,0,0,5.331Z" transform="translate(17.881)" fill="#00cfdd" stroke="#fff" stroke-miterlimit="10" stroke-width="2"/>
    <path id="Shape-3" data-name="Shape" d="M19.158,24.129C12.582,25,6.707,21.673,3.1,16.311.3,11.357-.826,7.08.652,0L5.643,1.754c-.38,8.316,2.265,13.378,6.3,15.5a12.18,12.18,0,0,0,6.783,1.422Z" transform="translate(0 11.495)" fill="#00cfdd" stroke="#fff" stroke-miterlimit="10" stroke-width="2"/>
    <path id="Shape-4" data-name="Shape" d="M0,12.593A17.734,17.734,0,0,1,12.946.507,18.442,18.442,0,0,1,17.242,0V5.234A12.635,12.635,0,0,0,6.36,11.34a12,12,0,0,0-1.187,2.709Z" transform="translate(0.639)" fill="#5a8dee"/>
  </g>
</svg>
