<?xml version="1.0" encoding="iso-8859-1"?>
<!-- Generator: Adobe Illustrator 19.0.0, SVG Export Plug-In . SVG Version: 6.00 Build 0)  -->
<svg version="1.1" id="Layer_1" xmlns="http://www.w3.org/2000/svg" xmlns:xlink="http://www.w3.org/1999/xlink" x="0px" y="0px"
	 viewBox="0 0 329.942 329.942" style="enable-background:new 0 0 329.942 329.942;" xml:space="preserve">
<path id="XMLID_10_" d="M329.208,126.666c-1.764-5.431-6.458-9.389-12.109-10.209l-95.822-13.922l-42.854-86.837
	c-2.526-5.12-7.741-8.362-13.451-8.362c-5.71,0-10.925,3.242-13.451,8.362l-42.851,86.836l-95.825,13.922
	c-5.65,0.821-10.345,4.779-12.109,10.209c-1.764,5.431-0.293,11.392,3.796,15.377l69.338,67.582L57.496,305.07
	c-0.965,5.628,1.348,11.315,5.967,14.671c4.619,3.357,10.743,3.799,15.797,1.142l85.711-45.059l85.712,45.059
	c2.194,1.154,4.591,1.723,6.978,1.723c0.021,0,0.043,0,0.064,0c8.266-0.023,14.957-6.73,14.957-15c0-1.152-0.13-2.274-0.375-3.352
	l-16.235-94.63l69.34-67.582C329.501,138.057,330.972,132.096,329.208,126.666z M229.485,193.646
	c-3.536,3.446-5.149,8.412-4.314,13.278l12.569,73.262l-65.789-34.585c-4.369-2.298-9.589-2.298-13.96,0l-65.789,34.585
	l12.568-73.263c0.835-4.866-0.779-9.831-4.314-13.278l-53.219-51.871l73.55-10.685c4.886-0.71,9.11-3.779,11.294-8.207l32.89-66.651
	l32.892,66.651c2.184,4.427,6.408,7.496,11.295,8.206l73.546,10.685L229.485,193.646z"/>
<g>
</g>
<g>
</g>
<g>
</g>
<g>
</g>
<g>
</g>
<g>
</g>
<g>
</g>
<g>
</g>
<g>
</g>
<g>
</g>
<g>
</g>
<g>
</g>
<g>
</g>
<g>
</g>
<g>
</g>
</svg>
