<svg xmlns="http://www.w3.org/2000/svg" xmlns:xlink="http://www.w3.org/1999/xlink" width="22" height="23" viewBox="0 0 22 23"><defs><clipPath id="a"><rect width="22" height="23" fill="none"/></clipPath></defs><g opacity="0.8" clip-path="url(#a)"><circle cx="3" cy="3" r="3" transform="translate(8 8)" fill="none" stroke="#fb6340" stroke-linecap="round" stroke-linejoin="round" stroke-width="2"/><path d="M17.9,13.857a1.515,1.515,0,0,0,.3,1.671l.055.055a1.838,1.838,0,1,1-2.6,2.6l-.055-.055a1.528,1.528,0,0,0-2.59,1.084v.156a1.837,1.837,0,1,1-3.673,0v-.083A1.515,1.515,0,0,0,8.347,17.9a1.515,1.515,0,0,0-1.671.3l-.055.055a1.838,1.838,0,1,1-2.6-2.6l.055-.055a1.528,1.528,0,0,0-1.084-2.59H2.837a1.837,1.837,0,1,1,0-3.673h.083a1.515,1.515,0,0,0,1.387-.992A1.515,1.515,0,0,0,4,6.676L3.948,6.62a1.838,1.838,0,1,1,2.6-2.6l.055.055a1.515,1.515,0,0,0,1.671.3h.073a1.515,1.515,0,0,0,.918-1.387V2.837a1.837,1.837,0,0,1,3.673,0v.083A1.528,1.528,0,0,0,15.529,4l.055-.055a1.838,1.838,0,1,1,2.6,2.6l-.055.055a1.515,1.515,0,0,0-.3,1.671v.073a1.515,1.515,0,0,0,1.387.918h.156a1.837,1.837,0,0,1,0,3.673h-.083A1.515,1.515,0,0,0,17.9,13.857Z" transform="translate(-0.082 -0.082)" fill="none" stroke="#fb6340" stroke-linecap="round" stroke-linejoin="round" stroke-width="2"/></g></svg>